<svg width="24" height="26" viewBox="0 0 24 26" fill="none" xmlns="http://www.w3.org/2000/svg">
<path d="M12.0039 -0.0078125C6.99403 -0.0078125 5.52883 -0.00227395 5.24402 0.0230452C4.2159 0.114629 3.57615 0.288104 2.87917 0.659979C2.34204 0.945808 1.91843 1.27713 1.50035 1.74158C0.738959 2.58858 0.277507 3.63062 0.110461 4.86928C0.0292458 5.47061 0.00561946 5.59325 0.000820359 8.66477C-0.00102545 9.68861 0.000820359 11.0361 0.000820359 12.8434C0.000820359 18.2079 0.00635778 19.7765 0.0303533 20.0811C0.113415 21.1532 0.270308 21.8277 0.602553 22.5655C1.23751 23.9779 2.45021 25.0381 3.87886 25.4337C4.37354 25.5702 4.9199 25.6454 5.6213 25.681C5.91848 25.6948 8.94744 25.7047 11.9783 25.7047C15.0091 25.7047 18.0399 25.7008 18.3297 25.6849C19.1418 25.644 19.6134 25.5761 20.1349 25.4317C20.8433 25.2371 21.5035 24.879 22.0693 24.3826C22.6352 23.8862 23.0932 23.2634 23.4112 22.5576C23.737 21.8376 23.9022 21.1374 23.9769 20.1213C23.9932 19.8997 24 16.3675 24 12.84C24 9.31199 23.9926 5.7863 23.9764 5.56476C23.9007 4.53222 23.7355 3.83792 23.3992 3.10406C23.1232 2.50333 22.8168 2.0547 22.372 1.59599C21.5783 0.783409 20.6074 0.288896 19.4503 0.11008C18.8897 0.023243 18.778 -0.00247175 15.9096 -0.0078125H12.0039Z" fill="url(#paint0_radial_249_3001)"/>
<path d="M12.0039 -0.0078125C6.99403 -0.0078125 5.52883 -0.00227395 5.24402 0.0230452C4.2159 0.114629 3.57615 0.288104 2.87917 0.659979C2.34204 0.945808 1.91843 1.27713 1.50035 1.74158C0.738959 2.58858 0.277507 3.63062 0.110461 4.86928C0.0292458 5.47061 0.00561946 5.59325 0.000820359 8.66477C-0.00102545 9.68861 0.000820359 11.0361 0.000820359 12.8434C0.000820359 18.2079 0.00635778 19.7765 0.0303533 20.0811C0.113415 21.1532 0.270308 21.8277 0.602553 22.5655C1.23751 23.9779 2.45021 25.0381 3.87886 25.4337C4.37354 25.5702 4.9199 25.6454 5.6213 25.681C5.91848 25.6948 8.94744 25.7047 11.9783 25.7047C15.0091 25.7047 18.0399 25.7008 18.3297 25.6849C19.1418 25.644 19.6134 25.5761 20.1349 25.4317C20.8433 25.2371 21.5035 24.879 22.0693 24.3826C22.6352 23.8862 23.0932 23.2634 23.4112 22.5576C23.737 21.8376 23.9022 21.1374 23.9769 20.1213C23.9932 19.8997 24 16.3675 24 12.84C24 9.31199 23.9926 5.7863 23.9764 5.56476C23.9007 4.53222 23.7355 3.83792 23.3992 3.10406C23.1232 2.50333 22.8168 2.0547 22.372 1.59599C21.5783 0.783409 20.6074 0.288896 19.4503 0.11008C18.8897 0.023243 18.778 -0.00247175 15.9096 -0.0078125H12.0039Z" fill="url(#paint1_radial_249_3001)"/>
<path d="M11.9981 3.35547C9.59193 3.35547 9.28995 3.36674 8.3449 3.41283C7.40169 3.45912 6.75788 3.61914 6.19454 3.85394C5.61181 4.09645 5.11751 4.42085 4.62505 4.94879C4.13222 5.47654 3.8295 6.00626 3.60247 6.63053C3.38282 7.23443 3.23331 7.92458 3.19085 8.93497C3.14877 9.94773 3.1377 10.2715 3.1377 12.8501C3.1377 15.4287 3.1484 15.7513 3.19122 16.7641C3.2346 17.7749 3.38393 18.4648 3.60284 19.0685C3.82932 19.693 4.13203 20.2227 4.62468 20.7505C5.11695 21.2786 5.61126 21.6038 6.19361 21.8463C6.75732 22.0811 7.40132 22.2411 8.34435 22.2874C9.2894 22.3335 9.59119 22.3448 11.9972 22.3448C14.4036 22.3448 14.7046 22.3335 15.6497 22.2874C16.5929 22.2411 17.2374 22.0811 17.8012 21.8463C18.3837 21.6038 18.8773 21.2786 19.3695 20.7505C19.8624 20.2227 20.1651 19.693 20.3921 19.0687C20.6099 18.4648 20.7594 17.7747 20.8037 16.7643C20.8462 15.7515 20.8573 15.4287 20.8573 12.8501C20.8573 10.2715 20.8462 9.94793 20.8037 8.93516C20.7594 7.92438 20.6099 7.23443 20.3921 6.63073C20.1651 6.00626 19.8624 5.47654 19.3695 4.94879C18.8767 4.42065 18.3839 4.09625 17.8006 3.85394C17.2358 3.61914 16.5916 3.45912 15.6484 3.41283C14.7033 3.36674 14.4025 3.35547 11.9955 3.35547H11.9981ZM11.2033 5.06649C11.4392 5.06609 11.7024 5.06649 11.9981 5.06649C14.3637 5.06649 14.6441 5.07558 15.5782 5.12108C16.4421 5.16341 16.9109 5.31809 17.2232 5.44805C17.6367 5.62014 17.9315 5.82586 18.2414 6.15817C18.5515 6.49049 18.7434 6.80698 18.9044 7.25006C19.0257 7.58435 19.1702 8.08678 19.2095 9.01251C19.252 10.0134 19.2612 10.3141 19.2612 12.848C19.2612 15.3818 19.252 15.6825 19.2095 16.6834C19.17 17.6091 19.0257 18.1116 18.9044 18.4458C18.7438 18.8889 18.5515 19.2044 18.2414 19.5365C17.9313 19.8689 17.6369 20.0746 17.2232 20.2467C16.9113 20.3772 16.4421 20.5315 15.5782 20.5738C14.6443 20.6193 14.3637 20.6292 11.9981 20.6292C9.63235 20.6292 9.35197 20.6193 8.41799 20.5738C7.55416 20.5311 7.08532 20.3764 6.77283 20.2465C6.35937 20.0744 6.06404 19.8687 5.75394 19.5364C5.44385 19.204 5.25188 18.8883 5.09093 18.4451C4.96966 18.1108 4.82513 17.6083 4.78582 16.6826C4.74336 15.6817 4.73487 15.381 4.73487 12.8456C4.73487 10.3101 4.74336 10.011 4.78582 9.01013C4.82532 8.0844 4.96966 7.58198 5.09093 7.24729C5.25151 6.80421 5.44385 6.48772 5.75394 6.1554C6.06404 5.82309 6.35937 5.61737 6.77283 5.44489C7.08514 5.31434 7.55416 5.16005 8.41799 5.11752C9.23532 5.07796 9.55206 5.06609 11.2033 5.06411V5.06649ZM16.7274 6.64299C16.5172 6.64299 16.3116 6.70983 16.1367 6.83504C15.9619 6.96025 15.8256 7.13822 15.7452 7.34643C15.6647 7.55465 15.6437 7.78375 15.6847 8.00478C15.7258 8.2258 15.8271 8.42882 15.9758 8.58814C16.1245 8.74747 16.314 8.85595 16.5203 8.89987C16.7265 8.94379 16.9403 8.92117 17.1346 8.83487C17.3288 8.74858 17.4949 8.60248 17.6116 8.41506C17.7284 8.22764 17.7907 8.00732 17.7906 7.78196C17.7906 7.15294 17.3144 6.6426 16.7274 6.6426V6.64299ZM11.9981 7.97423C9.48542 7.97423 7.44821 10.1574 7.44821 12.8501C7.44821 15.5429 9.48542 17.725 11.9981 17.725C14.5108 17.725 16.5475 15.5429 16.5475 12.8501C16.5475 10.1574 14.5106 7.97423 11.9979 7.97423H11.9981ZM11.9981 9.68524C13.6291 9.68524 14.9514 11.1021 14.9514 12.8501C14.9514 14.5979 13.6291 16.015 11.9981 16.015C10.367 16.015 9.04483 14.5979 9.04483 12.8501C9.04483 11.1021 10.367 9.68524 11.9981 9.68524Z" fill="white"/>
<defs>
<radialGradient id="paint0_radial_249_3001" cx="0" cy="0" r="1" gradientUnits="userSpaceOnUse" gradientTransform="translate(6.37503 27.6851) rotate(-90) scale(25.483 22.1226)">
<svg width="24" height="24" viewBox="0 0 24 24" fill="none" xmlns="http://www.w3.org/2000/svg">
<g id="Group 1000001797">
<path id="Vector" d="M12.0039 0C6.99403 0 5.52883 0.00516967 5.24402 0.0288024C4.2159 0.114287 3.57615 0.276208 2.87917 0.623314C2.34204 0.890106 1.91843 1.19936 1.50035 1.63288C0.738959 2.42347 0.277507 3.3961 0.110461 4.55226C0.0292458 5.11354 0.00561946 5.22801 0.000820359 8.09496C-0.00102545 9.05061 0.000820359 10.3083 0.000820359 11.9953C0.000820359 17.0025 0.00635778 18.4666 0.0303533 18.7509C0.113415 19.7516 0.270308 20.3812 0.602553 21.0699C1.23751 22.3882 2.45021 23.3778 3.87886 23.7471C4.37354 23.8745 4.9199 23.9446 5.6213 23.9778C5.91848 23.9908 8.94744 24 11.9783 24C15.0091 24 18.0399 23.9963 18.3297 23.9815C19.1418 23.9433 19.6134 23.88 20.1349 23.7452C20.8433 23.5635 21.5035 23.2293 22.0693 22.7659C22.6352 22.3026 23.0932 21.7212 23.4112 21.0625C23.737 20.3905 23.9022 19.7369 23.9769 18.7884C23.9932 18.5816 24 15.2847 24 11.9922C24 8.69907 23.9926 5.40821 23.9764 5.20143C23.9007 4.23765 23.7355 3.5896 23.3992 2.90462C23.1232 2.34389 22.8168 1.92515 22.372 1.49699C21.5783 0.738524 20.6074 0.276947 19.4503 0.11004C18.8897 0.0289871 18.778 0.00498504 15.9096 0H12.0039Z" fill="url(#paint0_radial_249_6099)"/>
<path id="Vector_2" d="M12.0039 0C6.99403 0 5.52883 0.00516967 5.24402 0.0288024C4.2159 0.114287 3.57615 0.276208 2.87917 0.623314C2.34204 0.890106 1.91843 1.19936 1.50035 1.63288C0.738959 2.42347 0.277507 3.3961 0.110461 4.55226C0.0292458 5.11354 0.00561946 5.22801 0.000820359 8.09496C-0.00102545 9.05061 0.000820359 10.3083 0.000820359 11.9953C0.000820359 17.0025 0.00635778 18.4666 0.0303533 18.7509C0.113415 19.7516 0.270308 20.3812 0.602553 21.0699C1.23751 22.3882 2.45021 23.3778 3.87886 23.7471C4.37354 23.8745 4.9199 23.9446 5.6213 23.9778C5.91848 23.9908 8.94744 24 11.9783 24C15.0091 24 18.0399 23.9963 18.3297 23.9815C19.1418 23.9433 19.6134 23.88 20.1349 23.7452C20.8433 23.5635 21.5035 23.2293 22.0693 22.7659C22.6352 22.3026 23.0932 21.7212 23.4112 21.0625C23.737 20.3905 23.9022 19.7369 23.9769 18.7884C23.9932 18.5816 24 15.2847 24 11.9922C24 8.69907 23.9926 5.40821 23.9764 5.20143C23.9007 4.23765 23.7355 3.5896 23.3992 2.90462C23.1232 2.34389 22.8168 1.92515 22.372 1.49699C21.5783 0.738524 20.6074 0.276947 19.4503 0.11004C18.8897 0.0289871 18.778 0.00498504 15.9096 0H12.0039Z" fill="url(#paint1_radial_249_6099)"/>
<path id="Vector_3" d="M11.9984 3.13867C9.59217 3.13867 9.2902 3.1492 8.34514 3.19222C7.40194 3.23542 6.75812 3.38479 6.19478 3.60394C5.61206 3.8303 5.11775 4.13309 4.62529 4.62587C4.13246 5.11847 3.82975 5.61291 3.60271 6.19561C3.38306 6.75929 3.23355 7.40346 3.1911 8.34656C3.14901 9.29187 3.13794 9.59411 3.13794 12.001C3.13794 14.4078 3.14865 14.7089 3.19147 15.6543C3.23484 16.5977 3.38417 17.2417 3.60308 17.8052C3.82956 18.3881 4.13228 18.8825 4.62492 19.3751C5.1172 19.8681 5.61151 20.1716 6.19386 20.398C6.75757 20.6171 7.40157 20.7665 8.34459 20.8097C9.28964 20.8527 9.59143 20.8632 11.9974 20.8632C14.4038 20.8632 14.7049 20.8527 15.6499 20.8097C16.5931 20.7665 17.2377 20.6171 17.8014 20.398C18.3839 20.1716 18.8775 19.8681 19.3698 19.3751C19.8626 18.8825 20.1653 18.3881 20.3924 17.8054C20.6102 17.2417 20.7597 16.5975 20.804 15.6544C20.8464 14.7091 20.8575 14.4078 20.8575 12.001C20.8575 9.59411 20.8464 9.29205 20.804 8.34674C20.7597 7.40328 20.6102 6.75929 20.3924 6.19579C20.1653 5.61291 19.8626 5.11847 19.3698 4.62587C18.8769 4.13291 18.3841 3.83012 17.8008 3.60394C17.236 3.38479 16.5918 3.23542 15.6486 3.19222C14.7036 3.1492 14.4027 3.13867 11.9958 3.13867H11.9984ZM11.2036 4.73573C11.4395 4.73536 11.7027 4.73573 11.9984 4.73573C14.364 4.73573 14.6443 4.74422 15.5785 4.78669C16.4423 4.8262 16.9112 4.97058 17.2235 5.09188C17.6369 5.25251 17.9317 5.44453 18.2416 5.75471C18.5517 6.06489 18.7437 6.3603 18.9046 6.77387C19.0259 7.0859 19.1704 7.55486 19.2097 8.41893C19.2522 9.35317 19.2614 9.6338 19.2614 11.9989C19.2614 14.364 19.2522 14.6447 19.2097 15.5789C19.1702 16.443 19.0259 16.912 18.9046 17.224C18.7441 17.6376 18.5517 17.932 18.2416 18.242C17.9315 18.5522 17.6371 18.7442 17.2235 18.9049C16.9115 19.0267 16.4423 19.1707 15.5785 19.2102C14.6445 19.2527 14.364 19.2619 11.9984 19.2619C9.6326 19.2619 9.35222 19.2527 8.41824 19.2102C7.5544 19.1704 7.08557 19.026 6.77307 18.9047C6.35961 18.7441 6.06428 18.552 5.75419 18.2419C5.44409 17.9317 5.25213 17.637 5.09117 17.2232C4.9699 16.9112 4.82538 16.4423 4.78606 15.5782C4.74361 14.644 4.73512 14.3633 4.73512 11.9967C4.73512 9.63011 4.74361 9.35095 4.78606 8.41672C4.82556 7.55265 4.9699 7.08368 5.09117 6.77129C5.25176 6.35771 5.44409 6.0623 5.75419 5.75212C6.06428 5.44194 6.35961 5.24993 6.77307 5.08893C7.08538 4.96707 7.5544 4.82306 8.41824 4.78336C9.23556 4.74644 9.5523 4.73536 11.2036 4.73351V4.73573ZM16.7277 6.20724C16.5174 6.20724 16.3118 6.26962 16.137 6.38649C15.9621 6.50336 15.8259 6.66948 15.7454 6.86382C15.6649 7.05817 15.6439 7.27202 15.685 7.47832C15.726 7.68463 15.8273 7.87412 15.976 8.02283C16.1248 8.17155 16.3142 8.27281 16.5205 8.3138C16.7268 8.35479 16.9405 8.33368 17.1348 8.25313C17.3291 8.17258 17.4951 8.03621 17.6119 7.86128C17.7287 7.68634 17.7909 7.48069 17.7909 7.27034C17.7909 6.68322 17.3147 6.20687 16.7277 6.20687V6.20724ZM11.9984 7.4498C9.48567 7.4498 7.44845 9.48758 7.44845 12.001C7.44845 14.5143 9.48567 16.5512 11.9984 16.5512C14.5111 16.5512 16.5477 14.5143 16.5477 12.001C16.5477 9.48758 14.5109 7.4498 11.9982 7.4498H11.9984ZM11.9984 9.04686C13.6293 9.04686 14.9517 10.3694 14.9517 12.001C14.9517 13.6324 13.6293 14.9551 11.9984 14.9551C10.3672 14.9551 9.04507 13.6324 9.04507 12.001C9.04507 10.3694 10.3672 9.04686 11.9984 9.04686Z" fill="white"/>
</g>
<defs>
<radialGradient id="paint0_radial_249_6099" cx="0" cy="0" r="1" gradientUnits="userSpaceOnUse" gradientTransform="translate(6.37503 25.8485) rotate(-90) scale(23.7858 22.1226)">
<stop stop-color="#FFDD55"/>
<stop offset="0.1" stop-color="#FFDD55"/>
<stop offset="0.5" stop-color="#FF543E"/>
<stop offset="1" stop-color="#C837AB"/>
</radialGradient>
<radialGradient id="paint1_radial_249_3001" cx="0" cy="0" r="1" gradientUnits="userSpaceOnUse" gradientTransform="translate(-4.02013 1.84448) rotate(79.4169) scale(11.3627 43.9361)">
<radialGradient id="paint1_radial_249_6099" cx="0" cy="0" r="1" gradientUnits="userSpaceOnUse" gradientTransform="translate(-4.02013 1.72892) rotate(78.6806) scale(10.6323 43.827)">
<stop stop-color="#3771C8"/>
<stop offset="0.128" stop-color="#3771C8"/>
<stop offset="1" stop-color="#6600FF" stop-opacity="0"/>
</radialGradient>
</defs>
</svg>
