<svg width="24" height="24" viewBox="0 0 24 24" fill="none" xmlns="http://www.w3.org/2000/svg">
<g id="VK Logo / Main">
<path id="&#226;&#134;&#179; Background" d="M15.68 0C22.4 0 24 1.6 24 8.32V15.68C24 22.4 22.4 24 15.68 24H8.32C1.6 24 0 22.4 0 15.68V8.32C0 1.6 1.6 0 8.32 0H15.68Z" fill="#2787F5"/>
<path id="&#226;&#134;&#179; Foreground" d="M6.25003 7.5H4.50003C4.00003 7.5 3.90002 7.73538 3.90002 7.99493C3.90002 8.45844 4.49332 10.7574 6.66248 13.798C8.10858 15.8744 10.146 17 12 17C13.1124 17 13.25 16.75 13.25 16.3194V14.75C13.25 14.25 13.3554 14.1502 13.7077 14.1502C13.9672 14.1502 14.4122 14.28 15.4504 15.2812C16.637 16.4677 16.8326 17 17.5 17H19.25C19.75 17 20 16.75 19.8558 16.2566C19.698 15.7649 19.1315 15.0515 18.3798 14.2058C17.9719 13.7238 17.3601 13.2047 17.1746 12.9451C16.9151 12.6114 16.9893 12.4631 17.1746 12.1664L17.2058 12.1223C17.4695 11.7475 19.3227 9.09012 19.5293 8.14328C19.6404 7.77247 19.5293 7.5 19 7.5H17.25C16.8051 7.5 16.5999 7.73538 16.4887 7.99493C16.4887 7.99493 15.5987 10.1641 14.338 11.5732C13.9302 11.981 13.7447 12.1108 13.5223 12.1108C13.411 12.1108 13.25 11.981 13.25 11.6102V8.14328C13.25 7.69831 13.1209 7.5 12.75 7.5H10C9.72197 7.5 9.55473 7.70652 9.55473 7.90225C9.55473 8.32407 10.1851 8.42134 10.25 9.60792V12.185C10.25 12.75 10.148 12.8524 9.92551 12.8524C9.33225 12.8524 7.88915 10.6736 7.03325 8.18034C6.86552 7.69575 6.69728 7.5 6.25003 7.5Z" fill="white"/>
</g>
</svg>
